# xmcd
#
# Track frame offsets:
#	150
#	18537
#	38262
#	50937
#	64287
#	85512
#	97212
#	113562
#	129312
#	142662
#	152112
#	176412
#
# Disc length: 2515
#
# Revision: 2
# Processed by: cddbd v1.5.1PL0 Copyright (c) Steve Scherf et al.
# Submitted via: audiograbber 1.83.01
# Normalized: r1:DSETVAR1,TDELIM( - )
#
DISCID=9409d10c
DTITLE=Various Artist - Generations Of Blues Vol. 2 - Born In Chicago
DYEAR=1998
DGENRE=Blues Sampler
TTITLE0=Paul Butterfield Blues Band - Born In Chicago
TTITLE1=Lunior Wells - Stormy Monday Blues
TTITLE2=Charlie Musselwhite - Little By Little
TTITLE3=Muddy Waters - Mannish Boy
TTITLE4=John Mayall - Room To Move
TTITLE5=Sonny Boy Williamson - Don't Start Me To Talking
TTITLE6=Son House - Empire State Express
TTITLE7=Big Walter Horton - Rockin' My Boogie
TTITLE8=Jimmy Reed - Big Boss Man
TTITLE9=Jimmy Cotton Blues Quartet - Rocket 88
TTITLE10=Siegel-Swall Band - Slow Blues In A
TTITLE11=Little Walter - Juke
EXTD=
EXTT0=
EXTT1=
EXTT2=
EXTT3=
EXTT4=
EXTT5=
EXTT6=
EXTT7=
EXTT8=
EXTT9=
EXTT10=
EXTT11=
PLAYORDER=
